<mxfile host="app.diagrams.net" modified="2022-09-13T14:37:35.059Z" agent="5.0 (Linux; Android 12; SM-G781B) AppleWebKit/537.36 (KHTML, like Gecko) Chrome/105.0.0.0 Mobile Safari/537.36" etag="oIO2ak8FYY68a5BiATjh" version="20.3.0" type="github">
  <diagram id="z-xUZUkA54lNi6jMoqXf" name="Page-1">
    <mxGraphModel dx="326" dy="631" grid="0" gridSize="10" guides="1" tooltips="1" connect="1" arrows="1" fold="1" page="0" pageScale="1" pageWidth="827" pageHeight="1169" math="0" shadow="0">
      <root>
        <mxCell id="0" />
        <mxCell id="1" parent="0" />
        <mxCell id="lOkj1REmKWMUVrPKQOKt-1" value="" style="ellipse;whiteSpace=wrap;html=1;hachureGap=4;" vertex="1" parent="1">
          <mxGeometry x="93" y="213" width="160" height="100" as="geometry" />
        </mxCell>
        <mxCell id="lOkj1REmKWMUVrPKQOKt-2" value="" style="shape=note;whiteSpace=wrap;html=1;backgroundOutline=1;fontColor=#000000;darkOpacity=0.05;fillColor=#FFF9B2;strokeColor=none;fillStyle=solid;direction=west;gradientDirection=north;gradientColor=#FFF2A1;shadow=1;size=20;pointerEvents=1;hachureGap=4;" vertex="1" parent="1">
          <mxGeometry x="155" y="43" width="140" height="160" as="geometry" />
        </mxCell>
      </root>
    </mxGraphModel>
  </diagram>
</mxfile>
